Coordinates
version=1
nRows=17
nColumns=40
inDegrees=yes

Units are S.I. units (second, meters, Newtons, ...)
Angles are in degrees.

endheader
time	pelvis_tilt	pelvis_list	pelvis_rotation	pelvis_tx	pelvis_ty	pelvis_tz	hip_flexion_r	hip_adduction_r	hip_rotation_r	knee_angle_r	knee_angle_r_beta	ankle_angle_r	subtalar_angle_r	mtp_angle_r	hip_flexion_l	hip_adduction_l	hip_rotation_l	knee_angle_l	knee_angle_l_beta	ankle_angle_l	subtalar_angle_l	mtp_angle_l	lumbar_extension	lumbar_bending	lumbar_rotation	arm_flex_r	arm_add_r	arm_rot_r	elbow_flex_r	pro_sup_r	wrist_flex_r	wrist_dev_r	arm_flex_l	arm_add_l	arm_rot_l	elbow_flex_l	pro_sup_l	wrist_flex_l	wrist_dev_l
     58.61328571	     -4.54834666	     -5.42133519	      7.31778113	      1.15876471	      0.92216536	      0.47716852	      1.39056182	      4.33313831	    -18.48166249	     10.45471075	     10.45471075	     15.07711156	      0.72173362	     -6.89215226	     29.37379499	     -7.39873186	     -1.76329695	     21.10709991	     21.10709991	      2.49832425	    -10.48122677	      4.95544209	     -9.52681073	      6.18391929	      4.62865527	     23.54700168	    -15.83788365	     -1.13457752	     84.87673961	     44.58034855	      0.00000000	      0.00000000	     -7.71588512	     -6.65363773	     -3.21863876	     28.94936227	     45.58585393	      0.00000000	      0.00000000
     58.62657143	     -4.62372633	     -5.42151550	      7.14649099	      1.16026438	      0.92166381	      0.47552326	      0.95701982	      4.22826222	    -18.51973380	     10.44758864	     10.44758864	     15.53960672	      1.27577489	     -6.17950063	     28.88119910	     -7.18997183	     -1.23235712	     21.34382178	     21.34382178	      2.02146114	    -11.66653441	      4.34384642	     -9.36775865	      5.94763355	      4.89485540	     22.94282327	    -15.71164501	     -0.66150557	     85.51179732	     44.56325054	      0.00000000	      0.00000000	     -7.54965863	     -6.84515518	     -3.53285567	     29.89181331	     45.63964961	      0.00000000	      0.00000000
     58.63985714	     -4.71714340	     -5.40570274	      6.97622535	      1.16173202	      0.92124684	      0.47384647	      0.60073433	      4.10331096	    -18.32432092	     10.50756137	     10.50756137	     15.69778216	      1.34846616	     -6.16495105	     28.54894553	     -7.09375355	     -1.10357570	     21.75096758	     21.75096758	      2.25570488	    -11.92836901	      4.15426619	     -9.15142384	      5.70195512	      4.93813746	     22.60399877	    -15.31057146	     -0.41771028	     85.44691585	     44.55744020	      0.00000000	      0.00000000	     -7.11446137	     -7.05342023	     -3.56837639	     30.06584579	     45.65243017	      0.00000000	      0.00000000
     58.65314286	     -4.73173621	     -5.37260071	      6.82808420	      1.16307681	      0.92111983	      0.47200485	      0.20685697	      3.94288625	    -18.17067419	     10.63687195	     10.63687195	     15.77805263	      1.37898466	     -6.07786288	     28.28999298	     -6.98238395	     -0.91289638	     22.32387916	     22.32387916	      2.50356814	    -12.39570106	      3.94694889	     -9.07996961	      5.40815514	      5.02312061	     22.10991172	    -14.89580798	     -0.07570449	     85.28344134	     44.55147296	      0.00000000	      0.00000000	     -6.59193531	     -7.29983807	     -3.61799669	     30.28839994	     45.66869583	      0.00000000	      0.00000000
     58.66642857	     -4.73119844	     -5.35279850	      6.68495376	      1.16429709	      0.92119160	      0.46994859	     -0.09833628	      3.74997813	    -18.02481033	     10.93859020	     10.93859020	     15.83883529	      1.33190522	     -5.90583304	     28.08906423	     -6.85867925	     -0.62292622	     22.93046992	     22.93046992	      2.82343925	    -13.07730486	      3.74833985	     -9.04532004	      5.18875565	      5.12164084	     21.58376063	    -14.69703685	      0.33936489	     84.97400585	     44.54910714	      0.00000000	      0.00000000	     -6.00513794	     -7.52817657	     -3.68226371	     30.56365849	     45.68817226	      0.00000000	      0.00000000
     58.67971429	     -4.92821771	     -5.30963122	      6.56767550	      1.16518708	      0.92116650	      0.46759124	      0.11879910	      3.39247104	    -17.76756413	     11.85052524	     11.85052524	     16.22696753	      1.03263580	     -5.15604403	     28.03422690	     -6.57728818	     -0.04196476	     23.30370684	     23.30370684	      3.03465321	    -14.16025024	      3.85746577	     -8.78181258	      4.99617293	      5.27202055	     21.18867455	    -15.01288123	      1.46149762	     84.14953753	     44.55333214	      0.00000000	      0.00000000	     -5.25543551	     -7.68948338	     -3.83456781	     30.97768687	     45.72442382	      0.00000000	      0.00000000
     58.69300000	     -4.81789216	     -5.28136089	      6.44447639	      1.16632962	      0.92174616	      0.46521134	     -0.19177298	      3.13911589	    -17.66995490	     12.34206716	     12.34206716	     16.16116978	      0.94756015	     -5.03255372	     27.69794680	     -6.48668355	      0.03809064	     23.79321362	     23.79321362	      3.56335171	    -14.53406958	      3.66055511	     -8.93589204	      4.75622049	      5.20802183	     20.58235161	    -14.71582510	      1.88097545	     83.76647778	     44.55245448	      0.00000000	      0.00000000	     -4.61579778	     -7.92122780	     -3.88109027	     31.20334745	     45.74175929	      0.00000000	      0.00000000
     58.70628571	     -4.92554306	     -5.20363008	      6.26457183	      1.16705213	      0.92209195	      0.46260804	      0.22019091	      2.62967981	    -17.43190862	     13.77929397	     13.77929397	     16.44130871	      0.57081950	     -4.55804701	     27.58267128	     -6.29921227	      0.11417940	     24.23274374	     24.23274374	      4.18053717	    -14.91209204	      3.97469453	     -8.82291751	      4.48539175	      5.28718267	     20.23187442	    -15.00599968	      3.08732919	     82.37697383	     44.57277099	      0.00000000	      0.00000000	     -3.84293530	     -8.07562326	     -3.99076571	     31.43840162	     45.77119339	      0.00000000	      0.00000000
     58.71957143	     -4.92406635	     -5.14807508	      6.11965919	      1.16787195	      0.92268505	      0.45981586	      0.47189518	      2.15694074	    -17.26136965	     15.11452709	     15.11452709	     16.53931955	      0.24110519	     -4.48314301	     27.28052279	     -6.15725183	      0.02801966	     24.54741763	     24.54741763	      4.79458089	    -15.04875191	      4.10232195	     -8.82552485	      4.32914798	      5.34127535	     19.73622350	    -15.13802319	      3.88838485	     81.21874535	     44.59199522	      0.00000000	      0.00000000	     -2.95404764	     -8.24288815	     -4.07216666	     31.78143445	     45.79738162	      0.00000000	      0.00000000
     58.73285714	     -4.91047922	     -5.09335534	      5.94204067	      1.16862557	      0.92334049	      0.45697747	      0.86026569	      1.63317196	    -17.03620490	     16.70962969	     16.70962969	     16.54185796	     -0.15036493	     -4.60047789	     26.92195684	     -6.03483217	     -0.13166497	     24.80251439	     24.80251439	      5.39906236	    -15.08207754	      4.22365378	     -8.84842980	      4.15342082	      5.38256010	     19.16978467	    -15.25266758	      4.70359292	     79.89100073	     44.61507908	      0.00000000	      0.00000000	     -2.11125431	     -8.40924638	     -4.13819925	     32.11613866	     45.82016243	      0.00000000	      0.00000000
     58.74614286	     -4.93118983	     -5.04365469	      5.73658395	      1.16931305	      0.92395972	      0.45408987	      1.45361870	      1.05637898	    -16.80126590	     18.59189108	     18.59189108	     16.45786032	     -0.64919457	     -4.93660447	     26.53434255	     -5.92913988	     -0.40922487	     24.94859643	     24.94859643	      5.99925305	    -15.01299522	      4.33525417	     -8.81516708	      4.00084260	      5.41297046	     18.62034051	    -15.38412828	      5.56275445	     78.30687457	     44.64524311	      0.00000000	      0.00000000	     -1.26779928	     -8.58038831	     -4.19751664	     32.49650011	     45.84159620	      0.00000000	      0.00000000
     58.75942857	     -4.90631419	     -5.00915932	      5.52887822	      1.16992279	      0.92463791	      0.45120640	      2.12290594	      0.47923260	    -16.47234524	     20.64498514	     20.64498514	     16.03310275	     -1.38408045	     -6.00829572	     26.11294234	     -5.85245824	     -0.72869921	     25.14871336	     25.14871336	      6.88174584	    -14.70492408	      5.11323850	     -8.77031724	      3.87694076	      4.61378447	     19.13815098	    -15.19641220	      7.92597230	     74.83364876	     44.72497762	      0.00000000	      0.00000000	     -0.99367421	     -8.87370699	     -4.51493010	     33.23338799	     45.88861612	      0.00000000	      0.00000000
     58.77271429	     -4.86241041	     -4.93006604	      5.27244122	      1.17049345	      0.92526974	      0.44833107	      2.99554248	     -0.22957465	    -16.14245977	     23.13199585	     23.13199585	     15.74351183	     -1.99540421	     -6.70986548	     25.55418848	     -5.74979536	     -1.15164364	     25.14535775	     25.14535775	      7.34846301	    -14.51648953	      4.89238177	     -8.85527133	      3.70136623	      4.84168043	     18.23902539	    -15.40190022	      8.30926504	     73.62014984	     44.75398106	      0.00000000	      0.00000000	     -0.04521192	     -9.02755484	     -4.61887064	     33.81747905	     45.91705032	      0.00000000	      0.00000000
     58.78600000	     -4.88574552	     -4.85668673	      4.99852480	      1.17084229	      0.92572927	      0.44553397	      4.16498376	     -0.96924517	    -15.70344269	     25.95065826	     25.95065826	     15.20545836	     -2.81801642	     -7.70133770	     25.06503479	     -5.65785037	     -1.62340317	     25.11285915	     25.11285915	      7.76910453	    -14.26680663	      4.64422533	     -8.84666068	      3.53478335	      4.98999421	     17.41461698	    -15.54450588	      8.74019154	     71.91760914	     44.79836339	      0.00000000	      0.00000000	      0.86503025	     -9.20501479	     -4.68601744	     34.42818497	     45.93965111	      0.00000000	      0.00000000
     58.79928571	     -4.85985366	     -4.81360961	      4.74685268	      1.17115325	      0.92619100	      0.44280761	      5.31504077	     -1.59942903	    -15.07581185	     28.63911479	     28.63911479	     13.44735461	     -4.58537826	    -11.31790436	     24.52763365	     -5.59922331	     -2.07982488	     25.07218623	     25.07218623	      8.14878900	    -13.98014799	      4.21102439	     -8.79404791	      3.42292290	      4.22479460	     17.91723726	    -14.87011639	      9.93433312	     67.41123163	     44.93673881	      0.00000000	      0.00000000	      1.07288515	     -9.64016979	     -4.73509864	     35.64433971	     45.94988053	      0.00000000	      0.00000000
     58.81257143	     -4.81247656	     -4.73295256	      4.46899459	      1.17131529	      0.92655479	      0.44012443	      6.68510685	     -2.34429567	    -14.50275600	     31.75560362	     31.75560362	     11.81067452	     -6.15532393	    -14.05381775	     23.96762717	     -5.49466653	     -2.52964140	     25.02668936	     25.02668936	      8.48471997	    -13.82375786	      3.79514142	     -8.86809884	      3.26779825	      4.01843130	     17.49035645	    -14.78328868	     10.61616411	     64.95479709	     45.01559650	      0.00000000	      0.00000000	      1.59653327	     -9.97076087	     -4.94236488	     36.91297448	     45.98797589	      0.00000000	      0.00000000
     58.82585714	     -4.80576694	     -4.62951937	      4.19973627	      1.17127400	      0.92673803	      0.43743727	      8.34224188	     -3.17185640	    -13.92831486	     35.31706829	     35.31706829	     10.67360736	     -7.22524531	    -14.83297508	     23.46287049	     -5.33824191	     -2.90589556	     24.97360019	     24.97360019	      8.88339800	    -13.68568450	      3.53949508	     -8.91542454	      3.14441528	      4.14669536	     16.39670073	    -14.96989053	     10.80880449	     63.50056231	     45.05666401	      0.00000000	      0.00000000	      2.62461287	    -10.14900017	     -5.00798221	     37.61729344	     46.01266082	      0.00000000	      0.00000000
